<svg xmlns="http://www.w3.org/2000/svg" version="1.0" width="251.000000pt" height="240.000000pt" viewBox="0 0 251.000000 240.000000" preserveAspectRatio="xMidYMid meet">

<g transform="translate(0.000000,240.000000) scale(0.100000,-0.100000)" fill="#000000" stroke="none">
<path d="M1280 2341 c-206 -47 -326 -91 -500 -184 -190 -101 -371 -239 -541 -414 -159 -163 -213 -282 -213 -468 0 -115 17 -183 72 -290 86 -169 406 -419 602 -470 71 -19 200 -19 270 0 109 29 257 124 291 186 15 29 1 43 -86 89 -117 61 -268 164 -330 225 -64 62 -119 167 -136 260 -30 162 41 336 188 456 160 131 370 251 686 389 80 35 99 48 104 69 10 37 5 52 -30 89 -69 71 -223 97 -377 63z"/>
<path d="M1420 1886 c-100 -29 -224 -110 -265 -172 -23 -35 -7 -57 69 -92 119 -56 290 -176 362 -254 51 -55 101 -157 115 -235 21 -109 -7 -228 -80 -341 -82 -129 -374 -321 -702 -462 -90 -39 -172 -79 -183 -90 -63 -62 27 -156 175 -185 67 -12 84 -12 185 5 333 57 706 253 985 518 154 145 182 178 227 262 57 107 76 177 76 290 0 115 -26 213 -85 313 -100 169 -405 401 -592 450 -83 22 -198 19 -287 -7z"/>
</g>
</svg>